{"title":"Country.Strong.2010.PPVRIP.XVID.AC3.Hive-CM8","uid":6219235,"size":1459314945,"categoryP":"video","categoryS":"movies","magnet":"?xt=urn:btih:63dec4592cde84a431fb9348a43bb0d361913246&amp;dn=Country.Strong.2010.PPVRIP.XVID.AC3.Hive-CM8&amp;tr=udp%3A%2F%2Ftracker.openbittorrent.com%3A80&amp;tr=udp%3A%2F%2Fopen.demonii.com%3A1337&amp;tr=udp%3A%2F%2Ftracker.coppersurfer.tk%3A6969&amp;tr=udp%3A%2F%2Fexodus.desync.com%3A6969","seeders":0,"leechers":0,"uploader":"sceneline","files":5,"time":1299273880,"description":"-\nhttp:// www . torrentkit. com        \nhttp:// www .torrentkit. com       the fast  and The Hottest Private Tracker on the net\n\nPlease Seed back to make the speed Faster!!!\n\nand don't forget to visit      ...... www .torrentkit .com..........\n-[img]http://img707.imageshack.us/img707/2781/largenr.jpg[/img]\n\n[color=blue][size=5][b]Country Strong 2010 PPVRIP XVID AC3 Hive-CM8[/b][/size][/color]\n\n\n\n[b]Thx Hive\n\nCM8 Doing It Right The First Time :D\n\nSource: iflix\nthx\n\nEncode: video was not the greatest, has a lot of noise im some scenes \ndue to bad deinterlace which i cant fix. i tried to clean up the video, \nit was already oversharpened. still added brightness,rgb and some denoise and chroma.\nfixed some sync issues, removed the video/audio looping near the finish and blurred \nthe logo which appears in the last 2 mins and resynced that last part.\naudio is cleaned too.\nstill watchable\n\n\nVideo: 716x412 @bitrate 1400 2pass\nAudio: English AC3 2.0 Stereo\nSample: yes included[/b]\n &lt;a href=&quot;\nhttp://www.imdb.com/title/tt1555064/&quot; rel=&quot;nofollow&quot; target=&quot;_NEW&quot;&gt;\nhttp://www.imdb.com/title/tt1555064/&lt;/a&gt;\n\n\nGeneral\nComplete name                    : Country.Strong.2010.PPVRIP.XVID.AC3.Hive-CM8.avi\nFormat                           : AVI\nFormat/Info                      : Audio Video Interleave\nFile size                        : 1.36 GiB\nDuration                         : 1h 56mn\nOverall bit rate                 : 1 669 Kbps\nWriting application              : Nandub v1.0rc2\nWriting library                  : Nandub build 1853/release\n\nVideo\nID                               : 0\nFormat                           : MPEG-4 Visual\nFormat profile                   : Advanced Simple@L5\nFormat settings, BVOP            : Yes\nFormat settings, QPel            : Yes\nFormat settings, GMC             : No warppoints\nFormat settings, Matrix          : Default (H.263)\nMuxing mode                      : Packed bitstream\nCodec ID                         : XVID\nCodec ID/Hint                    : XviD\nDuration                         : 1h 56mn\nBit rate                         : 1 401 Kbps\nWidth                            : 716 pixels\nHeight                           : 412 pixels\nDisplay aspect ratio             : 16:9\nFrame rate                       : 29.970 fps\nColor space                      : YUV\nChroma subsampling               : 4:2:0\nBit depth                        : 8 bits\nScan type                        : Progressive\nBits/(Pixel*Frame)               : 0.158\nStream size                      : 1.14 GiB (84%)\nWriting library                  : XviD 1.2.1 (UTC 2008-12-04)\n\nAudio\nID                               : 1\nFormat                           : AC-3\nFormat/Info                      : Audio Coding 3\nMode extension                   : CM (complete main)\nCodec ID                         : 2000\nDuration                         : 1h 56mn\nBit rate mode                    : Constant\nBit rate                         : 256 Kbps\nChannel(s)                       : 2 channels\nChannel positions                : Front: L R\nSampling rate                    : 48.0 KHz\nBit depth                        : 16 bits\nVideo delay                      : 170ms\nStream size                      : 213 MiB (15%)\nAlignment                        : Split accross interleaves\nInterleave, duration             : 33 ms (1.00 video frame)\nInterleave, preload duration     : 500 ms\n\n\n\nGwyneth Paltrow\t ... \tKelly Canter\nTim McGraw\t... \tJames Canter\nGarrett Hedlund\t... \tBeau Hutton\nTina White\t... \tInterviewee\nLeighton Meester ...    Chiles Stanton\nMarshall Chapman ... \tWinnie\nLari White\t... \tHair Stylist\nJeremy Childs\t... \tJJ\n\n\n\nA drama centered on a rising country-music songwriter (Hedlund) who sparks \nwith a fallen star (Paltrow). Together, they mount his ascent and her comeback, \nwhich leads to romantic complications involving her husband/manager (McGraw) \nand a beauty queen-turned-singer (Meester).  \n\n\n\n\n[img]http://img220.imageshack.us/img220/9372/86830280.png[/img]\n[img]http://img153.imageshack.us/img153/1010/coccocococoo.png[/img]\n[img]http://img839.imageshack.us/img839/9910/coccococoo.png[/img]\n[img]http://img34.imageshack.us/img34/9349/coccocoo.png[/img]\n[img]http://img35.imageshack.us/img35/1572/coccoo.png[/img]\n[img]http://img191.imageshack.us/img191/8886/cocou.png[/img]\n\n\n\n\n\nGreetz\n\niNK,LUSi,,MAGNET,CLASSiFiED,THC,LEGi0N,T0XiC,IMAGiNE,ViSiON,WBZ,FLAWL3SS,NOVA\nVik,Rapeseed,D2U,SAFC,goldadvance,MEMORY100,KaN1vE,Unevano,Pinnz,Wayne,Mr Hive\nand all P2P groups \nGreat Work Guys :D\n\n&lt;a class=&quot;__cf_email__&quot; href=&quot;/cdn-cgi/l/email-protection&quot; data-cfemail=&quot;7b3836433b130e0813161a121755181416&quot;&gt;[email&amp;#160;protected]&lt;/a&gt;&lt;script cf-hash='f9e31' type=&quot;text/javascript&quot;&gt;\n/* &lt;![CDATA[ */!function(){try{var t=&quot;currentScript&quot;in document?document.currentScript:function(){for(var t=document.getElementsByTagName(&quot;script&quot;),e=t.length;e--;)if(t[e].getAttribute(&quot;cf-hash&quot;))return t[e]}();if(t&amp;&amp;t.previousSibling){var e,r,n,i,c=t.previousSibling,a=c.getAttribute(&quot;data-cfemail&quot;);if(a){for(e=&quot;&quot;,r=parseInt(a.substr(0,2),16),n=2;a.length-n;n+=2)i=parseInt(a.substr(n,2),16)^r,e+=String.fromCharCode(i);e=document.createTextNode(e),c.parentNode.replaceChild(e,c)}}}catch(u){}}();/* ]]&gt; */&lt;/script&gt;","torrent":{"xt":"urn:btih:63dec4592cde84a431fb9348a43bb0d361913246","amp;dn":"Country.Strong.2010.PPVRIP.XVID.AC3.Hive-CM8","amp;tr":["udp%3A%2F%2Ftracker.openbittorrent.com%3A80","udp%3A%2F%2Fopen.demonii.com%3A1337","udp%3A%2F%2Ftracker.coppersurfer.tk%3A6969","udp%3A%2F%2Fexodus.desync.com%3A6969"],"infoHash":"63dec4592cde84a431fb9348a43bb0d361913246","infoHashBuffer":{"type":"Buffer","data":[99,222,196,89,44,222,132,164,49,251,147,72,164,59,176,211,97,145,50,70]},"announce":[],"urlList":[]}}